<svg viewBox="0 0 169 3600" preserveAspectRatio="none" class="h-full w-full bg-red-900">
<rect x="17" y="0" width="1" height="3600" fill="#b91c1c80"></rect><rect x="41" y="0" width="1" height="3600" fill="#b91c1c80"></rect><rect x="65" y="0" width="1" height="3600" fill="#b91c1c80"></rect><rect x="89" y="0" width="1" height="3600" fill="#b91c1c80"></rect><rect x="113" y="0" width="1" height="3600" fill="#b91c1c80"></rect><rect x="137" y="0" width="1" height="3600" fill="#b91c1c80"></rect><rect x="161" y="0" width="1" height="3600" fill="#b91c1c80"></rect><rect x="0" y="3232" width="1" height="368" fill="#fbbf24"></rect><rect x="1" y="2318" width="1" height="1057" fill="#f87171"></rect><rect x="1" y="3375" width="1" height="225" fill="#fbbf24"></rect><rect x="3" y="2129" width="1" height="1471" fill="#f87171"></rect><rect x="4" y="2436" width="1" height="1164" fill="#f87171"></rect><rect x="5" y="1071" width="1" height="2529" fill="#f87171"></rect><rect x="6" y="1537" width="1" height="2063" fill="#f87171"></rect><rect x="7" y="2319" width="1" height="1281" fill="#f87171"></rect><rect x="8" y="3003" width="1" height="597" fill="#f87171"></rect><rect x="9" y="0" width="1" height="3600" fill="#f87171"></rect><rect x="10" y="436" width="1" height="3164" fill="#f87171"></rect><rect x="11" y="3290" width="1" height="310" fill="#f87171"></rect><rect x="24" y="1218" width="1" height="2382" fill="#f87171"></rect><rect x="34" y="1683" width="1" height="994" fill="#ec4899"></rect><rect x="34" y="2677" width="1" height="923" fill="#60a5fa"></rect><rect x="35" y="3103" width="1" height="497" fill="#ec4899"></rect><rect x="37" y="3140" width="1" height="460" fill="#ec4899"></rect><rect x="50" y="2417" width="1" height="1183" fill="#ec4899"></rect><rect x="51" y="2378" width="1" height="1222" fill="#ec4899"></rect><rect x="52" y="2088" width="1" height="1512" fill="#ec4899"></rect><rect x="53" y="940" width="1" height="2660" fill="#ec4899"></rect><rect x="57" y="3600" width="1" height="0" fill="#ec4899"></rect><rect x="58" y="3043" width="1" height="557" fill="#ec4899"></rect><rect x="59" y="1309" width="1" height="2291" fill="#ec4899"></rect><rect x="62" y="3594" width="1" height="6" fill="#facc15"></rect><rect x="77" y="2842" width="1" height="758" fill="#ec4899"></rect><rect x="78" y="2261" width="1" height="740" fill="#ec4899"></rect><rect x="78" y="3001" width="1" height="113" fill="#a3a3a3"></rect><rect x="78" y="3114" width="1" height="298" fill="#a3a3a3"></rect><rect x="78" y="3412" width="1" height="188" fill="#06b6d4"></rect><rect x="79" y="1596" width="1" height="2004" fill="#ec4899"></rect><rect x="80" y="1070" width="1" height="1327" fill="#ec4899"></rect><rect x="80" y="2397" width="1" height="1203" fill="#4ade80"></rect><rect x="81" y="364" width="1" height="1662" fill="#ec4899"></rect><rect x="81" y="2026" width="1" height="1574" fill="#60a5fa"></rect><rect x="82" y="3147" width="1" height="453" fill="#60a5fa"></rect><rect x="83" y="3583" width="1" height="17" fill="#4ade80"></rect><rect x="84" y="2452" width="1" height="1148" fill="#4ade80"></rect><rect x="85" y="3600" width="1" height="0" fill="#4ade80"></rect><rect x="101" y="2700" width="1" height="900" fill="#60a5fa"></rect><rect x="103" y="908" width="1" height="2692" fill="#60a5fa"></rect><rect x="104" y="1323" width="1" height="2277" fill="#60a5fa"></rect><rect x="105" y="727" width="1" height="2873" fill="#60a5fa"></rect><rect x="106" y="1755" width="1" height="1845" fill="#60a5fa"></rect><rect x="107" y="2131" width="1" height="1469" fill="#f87171"></rect><rect x="108" y="1650" width="1" height="1950" fill="#60a5fa"></rect><rect x="123" y="1179" width="1" height="2421" fill="#60a5fa"></rect><rect x="124" y="1542" width="1" height="2058" fill="#60a5fa"></rect><rect x="125" y="1973" width="1" height="1627" fill="#60a5fa"></rect><rect x="126" y="2214" width="1" height="1356" fill="#60a5fa"></rect><rect x="126" y="3570" width="1" height="30" fill="#4ade80"></rect><rect x="127" y="1507" width="1" height="1533" fill="#60a5fa"></rect><rect x="127" y="3040" width="1" height="560" fill="#fbbf24"></rect><rect x="128" y="3598" width="1" height="2" fill="#fbbf24"></rect><rect x="129" y="1101" width="1" height="100" fill="#fbbf24"></rect><rect x="129" y="1201" width="1" height="2399" fill="#0284c7"></rect><rect x="130" y="1129" width="1" height="2471" fill="#0284c7"></rect><rect x="131" y="876" width="1" height="2724" fill="#0284c7"></rect><rect x="132" y="1295" width="1" height="765" fill="#f87171"></rect><rect x="132" y="2060" width="1" height="1540" fill="#0284c7"></rect><rect x="133" y="2915" width="1" height="224" fill="#f87171"></rect><rect x="133" y="3139" width="1" height="461" fill="#0284c7"></rect><rect x="141" y="1733" width="1" height="336" fill="#f87171"></rect><rect x="141" y="2069" width="1" height="1531" fill="#0284c7"></rect><rect x="142" y="866" width="1" height="59" fill="#f87171"></rect><rect x="142" y="925" width="1" height="1697" fill="#ec4899"></rect><rect x="142" y="2622" width="1" height="978" fill="#0284c7"></rect><rect x="143" y="2104" width="1" height="1021" fill="#f87171"></rect><rect x="143" y="3125" width="1" height="475" fill="#ec4899"></rect><rect x="143" y="3600" width="1" height="0" fill="#0284c7"></rect><rect x="144" y="1407" width="1" height="1909" fill="#f87171"></rect><rect x="144" y="3316" width="1" height="284" fill="#facc15"></rect><rect x="145" y="678" width="1" height="2922" fill="#facc15"></rect><rect x="146" y="1330" width="1" height="2270" fill="#facc15"></rect><rect x="147" y="2849" width="1" height="751" fill="#facc15"></rect><rect x="149" y="3368" width="1" height="232" fill="#facc15"></rect><rect x="151" y="3078" width="1" height="522" fill="#f87171"></rect><rect x="154" y="3186" width="1" height="414" fill="#facc15"></rect><rect x="155" y="0" width="1" height="3600" fill="#facc15"></rect><rect x="156" y="0" width="1" height="3600" fill="#facc15"></rect><rect x="157" y="1339" width="1" height="2261" fill="#facc15"></rect><rect x="165" y="3214" width="1" height="132" fill="#f87171"></rect><rect x="165" y="3346" width="1" height="254" fill="#fbbf24"></rect><rect x="166" y="887" width="1" height="2713" fill="#f87171"></rect><rect x="167" y="93" width="1" height="3507" fill="#f87171"></rect><rect x="168" y="3140" width="1" height="460" fill="#f87171"></rect>
</svg>
